# xmcd
#
# Track frame offsets: 
#        150
#        11935
#        25000
#        39162
#        58302
#        78840
#        92792
#        105830
#        122040
#        140330
#
# Disc length: 2091 seconds
#
# Revision: 0
# Processed by: cddbd v1.5.1PL2 Copyright (c) Steve Scherf et al.
# Submitted via: ExactAudioCopy v0.95b4
#
DISCID=7408290a
DTITLE=Doc Walker - Good Day to Ride
DYEAR=1995
DGENRE=Country
TTITLE0=That Bridge
TTITLE1=Old Wheel Inn
TTITLE2=Good Day to Ride
TTITLE3=Furthar than a Sinner Goes
TTITLE4=Next Year
TTITLE5=Blue Bar
TTITLE6=Promised Land
TTITLE7=$100 Reward
TTITLE8=Willing Hand
TTITLE9=Three Day Bender
EXTD=
EXTT0=
EXTT1=
EXTT2=
EXTT3=
EXTT4=
EXTT5=
EXTT6=
EXTT7=
EXTT8=
EXTT9=
PLAYORDER=
